<svg width="32" height="40" viewBox="0 0 32 40" fill="none" xmlns="http://www.w3.org/2000/svg">
<path d="M11.0026 31.28C9.80796 31.28 8.64129 31.14 7.50263 30.86C6.38263 30.5613 5.36529 30.0387 4.45063 29.292C3.55463 28.5453 2.83596 27.5093 2.29463 26.184C1.77196 24.8587 1.51063 23.16 1.51063 21.088C1.51063 19.016 1.77196 17.3173 2.29463 15.992C2.83596 14.6667 3.55463 13.6307 4.45063 12.884C5.36529 12.1373 6.38263 11.624 7.50263 11.344C8.64129 11.0453 9.80796 10.896 11.0026 10.896C12.1973 10.896 13.3546 11.0453 14.4746 11.344C15.6133 11.6427 16.6306 12.1653 17.5266 12.912C18.4413 13.6587 19.16 14.6947 19.6826 16.02C20.224 17.3453 20.4946 19.0347 20.4946 21.088C20.4946 23.1413 20.224 24.8307 19.6826 26.156C19.16 27.4813 18.4413 28.5173 17.5266 29.264C16.6306 30.0107 15.6133 30.5333 14.4746 30.832C13.3546 31.1307 12.1973 31.28 11.0026 31.28ZM11.0026 26.52C12.384 26.52 13.4293 26.1093 14.1386 25.288C14.848 24.4667 15.2026 23.0667 15.2026 21.088C15.2026 19.1093 14.848 17.7093 14.1386 16.888C13.4293 16.0667 12.384 15.656 11.0026 15.656C9.63996 15.656 8.60396 16.076 7.89463 16.916C7.18529 17.756 6.83063 19.1467 6.83063 21.088C6.83063 23.0293 7.18529 24.42 7.89463 25.26C8.60396 26.1 9.63996 26.52 11.0026 26.52Z" fill="#A385F2"/>
<path d="M14.3142 31V15.684L13.7542 12.856L14.3142 11.176H24.3942C25.9062 11.176 27.2036 11.4187 28.2862 11.904C29.3689 12.3893 30.1996 13.1733 30.7782 14.256C31.3569 15.32 31.6462 16.7293 31.6462 18.484C31.6462 21.116 30.9369 23.0107 29.5182 24.168C28.1182 25.3067 26.1302 25.876 23.5542 25.876H20.4742V26.492L20.7542 29.292L20.4742 31H14.3142ZM20.4742 20.64H22.0982C22.7516 20.64 23.3116 20.612 23.7782 20.556C24.2636 20.5 24.6369 20.332 24.8982 20.052C25.1596 19.7533 25.2902 19.2773 25.2902 18.624C25.2902 17.9333 25.1502 17.4387 24.8702 17.14C24.5902 16.8413 24.1982 16.664 23.6942 16.608C23.2089 16.5333 22.6396 16.496 21.9862 16.496H20.1942L20.4742 20.64Z" fill="#A385F2"/>
</svg>
