<svg width="31" height="20" viewBox="0 0 31 20" fill="none" xmlns="http://www.w3.org/2000/svg">
<g id="mastercard_symbol.svg" clip-path="url(#clip0_36_2253)">
<g id="Group">
<g id="Group_2">
<path id="Vector" d="M19.3735 2.59985H11.1267V17.4001H19.3735V2.59985Z" fill="#FF5F00"/>
<path id="Vector_2" d="M11.6502 9.99999C11.6502 7.12361 12.9854 4.37799 15.2369 2.59987C11.1528 -0.616441 5.23603 0.0895773 2.01586 4.19494C-1.20431 8.27416 -0.497443 14.1838 3.61286 17.4001C7.04247 20.0934 11.8335 20.0934 15.2631 17.4001C12.9854 15.622 11.6502 12.8764 11.6502 9.99999Z" fill="#EB001B"/>
<path id="Vector_3" d="M30.5001 9.99998C30.5001 15.2036 26.2851 19.4136 21.0752 19.4136C18.9546 19.4136 16.9125 18.7075 15.2632 17.4001C19.3473 14.1838 20.0542 8.27416 16.834 4.16879C16.3628 3.59352 15.8391 3.0444 15.2632 2.59986C19.3473 -0.616441 25.2902 0.0895773 28.4842 4.19494C29.7932 5.84232 30.5001 7.88193 30.5001 9.99998Z" fill="#F79E1B"/>
<path id="Vector_4" d="M29.6098 15.8312V15.5174H29.7407V15.4651H29.4265V15.5174H29.5574V15.8312H29.6098ZM30.2119 15.8312V15.4651H30.1072L30.0025 15.7266L29.8978 15.4651H29.793V15.8312H29.8716V15.5435L29.9763 15.7789H30.0548L30.1596 15.5435V15.8312H30.2119Z" fill="#F79E1B"/>
</g>
</g>
</g>
<defs>
<clipPath id="clip0_36_2253">
<rect width="30.5" height="18.8272" fill="white" transform="translate(0 0.586426)"/>
</clipPath>
</defs>
</svg>
