<svg width="77" height="20" viewBox="0 0 77 20" fill="none" xmlns="http://www.w3.org/2000/svg">
<g id="paypal_logo.svg" clip-path="url(#clip0_36_2269)">
<path id="Vector" d="M67.2128 4.70316L65.5808 14.9313C65.5747 14.9689 65.5769 15.0073 65.5873 15.0439C65.5976 15.0805 65.6159 15.1145 65.6408 15.1433C65.6657 15.1721 65.6966 15.1952 65.7313 15.2109C65.7661 15.2265 65.8038 15.2344 65.842 15.234H67.7733C67.8414 15.2346 67.9075 15.2108 67.9596 15.167C68.0117 15.1231 68.0463 15.0621 68.0572 14.995L69.6891 4.76687C69.6953 4.72931 69.6931 4.69087 69.6827 4.65425C69.6724 4.61763 69.6541 4.58371 69.6292 4.55487C69.6043 4.52603 69.5734 4.50296 69.5387 4.4873C69.5039 4.47163 69.4661 4.46373 69.428 4.46417H67.4967C67.4283 4.46282 67.3618 4.48633 67.3096 4.53031C67.2574 4.57428 67.2229 4.63573 67.2128 4.70316ZM65.1505 7.68797H63.318C63.25 7.68731 63.1839 7.71102 63.1319 7.7548C63.0799 7.79858 63.0453 7.85953 63.0345 7.92656L62.9739 8.30312C62.9739 8.30312 61.5507 6.76364 59.0308 7.80402C57.5851 8.39969 56.8912 9.63038 56.5959 10.532C56.5959 10.532 55.6587 13.2721 57.7783 14.7804C57.7783 14.7804 59.7438 16.231 61.957 14.6911L61.9188 14.9313C61.9099 14.9877 61.9198 15.0455 61.947 15.0958C61.9742 15.146 62.0171 15.186 62.0693 15.2097C62.1038 15.2259 62.1417 15.234 62.1799 15.234H64.0136C64.0819 15.2353 64.1484 15.2118 64.2007 15.1679C64.2529 15.1239 64.2874 15.0624 64.2975 14.995L65.4129 7.99068C65.4191 7.95316 65.4169 7.91473 65.4064 7.87817C65.3959 7.8416 65.3774 7.80782 65.3522 7.77927C65.3274 7.75018 65.2965 7.72689 65.2616 7.71104C65.2267 7.69519 65.1888 7.68759 65.1505 7.68797ZM62.4541 11.559C62.3826 12.0484 62.1345 12.4949 61.7565 12.8148C61.3768 13.1359 60.8936 13.3093 60.3959 13.303C60.2007 13.3052 60.0063 13.277 59.8199 13.2194C59.0287 12.9678 58.5772 12.2155 58.707 11.3999C58.779 10.9108 59.0273 10.4646 59.4054 10.1449C59.7847 9.82362 60.2676 9.64972 60.7652 9.65513C60.9604 9.65311 61.1548 9.68159 61.3412 9.73953C62.1372 9.98948 62.5867 10.743 62.4561 11.5594H62.4541V11.559ZM52.669 11.7525C53.6627 11.7525 54.6239 11.4003 55.3789 10.76C56.1322 10.1219 56.631 9.23526 56.7846 8.26132C57.1056 6.23533 55.5074 4.46701 53.2417 4.46701H49.5919C49.5237 4.46635 49.4576 4.49012 49.4056 4.53399C49.3536 4.57785 49.3191 4.63889 49.3083 4.706L47.676 14.9341C47.6671 14.9906 47.6771 15.0483 47.7042 15.0986C47.7314 15.1489 47.7744 15.1889 47.8265 15.2125C47.8615 15.2287 47.8989 15.2368 47.9371 15.2368H49.8697C49.9378 15.2375 50.0039 15.2137 50.0559 15.1699C50.1079 15.126 50.1425 15.065 50.1532 14.9978L50.6323 11.9944C50.6424 11.9269 50.6768 11.8653 50.7291 11.8213C50.7813 11.7772 50.8479 11.7536 50.9163 11.755L52.669 11.7525ZM54.2855 8.16921C54.1663 8.91826 53.5814 9.46969 52.4624 9.46969H51.0318L51.4662 6.74579H52.8712C54.028 6.74782 54.4047 7.42342 54.2855 8.17124V8.16921Z" fill="#0070E0"/>
<path id="Vector_2" d="M45.4748 7.86153L43.2644 11.556L42.1426 7.88872C42.125 7.83019 42.0888 7.77895 42.0395 7.74272C41.9902 7.70649 41.9305 7.68723 41.8692 7.68786H39.8745C39.8229 7.68717 39.7727 7.7051 39.7333 7.73835C39.694 7.77161 39.6679 7.81795 39.6601 7.86883C39.6552 7.90257 39.6587 7.93698 39.6703 7.96906L41.6805 14.1464L39.8623 17.0574C39.8468 17.0814 39.8365 17.1082 39.8318 17.1363C39.8271 17.1644 39.8282 17.1932 39.8351 17.2208C39.8419 17.2485 39.8544 17.2744 39.8716 17.2971C39.8889 17.3198 39.9106 17.3388 39.9355 17.3528C39.9687 17.3719 40.0065 17.3817 40.0449 17.3812H42.1934C42.2547 17.3814 42.3151 17.3658 42.3686 17.336C42.4221 17.3061 42.467 17.263 42.4989 17.2108L48.1138 8.01329C48.1342 7.98126 48.1453 7.94429 48.1461 7.90638C48.1469 7.86847 48.1373 7.83107 48.1183 7.79823C48.0993 7.76528 48.0719 7.738 48.0387 7.71923C48.0056 7.70046 47.9681 7.69089 47.93 7.69151H45.7823C45.7207 7.69095 45.6599 7.70631 45.6061 7.73611C45.5522 7.7659 45.5069 7.80911 45.4748 7.86153ZM38.7437 7.68786H36.9096C36.8413 7.68721 36.7751 7.71102 36.723 7.75496C36.6709 7.7989 36.6364 7.86004 36.6257 7.92726L36.5663 8.30341C36.5663 8.30341 35.1418 6.76393 32.6219 7.80432C31.1767 8.39998 30.4823 9.63067 30.1882 10.5323C30.1882 10.5323 29.2502 13.2724 31.3695 14.7806C31.3695 14.7806 33.3354 16.2313 35.5485 14.6914L35.5103 14.9316C35.5013 14.988 35.5112 15.0459 35.5384 15.0962C35.5656 15.1465 35.6086 15.1864 35.6608 15.2099C35.6954 15.2262 35.7332 15.2343 35.7715 15.2343H37.6051C37.6732 15.2348 37.7392 15.2109 37.7912 15.1671C37.8432 15.1233 37.8778 15.0623 37.8886 14.9953L39.0044 7.99097C39.0135 7.93446 39.0037 7.87655 38.9765 7.82616C38.9493 7.77578 38.9062 7.73573 38.8539 7.71221C38.8192 7.69627 38.7819 7.68797 38.7437 7.68786ZM36.0468 11.5597C35.9746 12.0485 35.7265 12.4943 35.3488 12.8139C34.9694 13.135 34.4866 13.3087 33.989 13.3033C33.7941 13.3054 33.6001 13.2772 33.4139 13.2197C32.6231 12.9681 32.172 12.2158 32.3018 11.3998C32.374 10.9096 32.6233 10.4626 33.0026 10.1427C33.3834 9.8215 33.8678 9.64842 34.3665 9.65542C34.5617 9.65339 34.7566 9.68179 34.9429 9.73982C35.7308 9.98977 36.1794 10.7429 36.0493 11.5597H36.0468ZM26.2622 11.7528C27.2542 11.7523 28.2138 11.4001 28.9696 10.7591C29.7223 10.121 30.2205 9.23466 30.3737 8.26121C30.6951 6.23563 29.0965 4.4673 26.8316 4.4673H23.1814C23.1132 4.46662 23.0472 4.49032 22.9951 4.53409C22.943 4.57787 22.9083 4.63882 22.8974 4.70589L21.2704 14.9312C21.2613 14.9877 21.2711 15.0456 21.2983 15.096C21.3255 15.1464 21.3686 15.1864 21.4209 15.2099C21.4555 15.2258 21.4933 15.2343 21.5315 15.2343H23.4628C23.5311 15.2349 23.5973 15.2111 23.6494 15.1672C23.7015 15.1233 23.736 15.0621 23.7468 14.9949L24.2251 11.9914C24.2353 11.924 24.2697 11.8625 24.3219 11.8186C24.3742 11.7746 24.4407 11.7511 24.509 11.7524L26.2622 11.7528ZM27.8786 8.1691C27.7595 8.91814 27.1749 9.46958 26.0559 9.46958H24.6254L25.059 6.74567H26.4639C27.6212 6.7477 27.9974 7.42371 27.8786 8.17113V8.1691Z" fill="#003087"/>
<path id="Vector_3" d="M13.776 4.99294C13.8195 2.73445 11.9521 1.00183 9.38421 1.00183H4.07271C3.94894 1.00177 3.82921 1.04581 3.73509 1.126C3.64098 1.2062 3.57867 1.31728 3.55938 1.43925L1.4312 14.7049C1.42168 14.7651 1.42533 14.8265 1.4419 14.8851C1.45847 14.9437 1.48758 14.998 1.5272 15.0442C1.56683 15.0905 1.61603 15.1277 1.67144 15.1532C1.72684 15.1786 1.78712 15.1918 1.84813 15.1919H4.99484L4.50306 18.2635C4.49354 18.3236 4.49719 18.3851 4.51377 18.4437C4.53034 18.5022 4.55944 18.5565 4.59907 18.6028C4.63869 18.6491 4.6879 18.6862 4.7433 18.7117C4.7987 18.7372 4.85899 18.7504 4.92 18.7504H7.48341C7.60706 18.7504 7.7173 18.7062 7.81167 18.6263C7.90522 18.5459 7.92068 18.4351 7.9402 18.313L8.69271 13.8967C8.71183 13.7749 8.77406 13.6167 8.86803 13.5363C8.96199 13.456 9.04415 13.4122 9.16822 13.4122H10.7367C13.2517 13.4122 15.3852 11.6288 15.7753 9.1488C16.0514 7.38858 15.2949 5.78703 13.776 4.99294Z" fill="#001C64"/>
<path id="Vector_4" d="M5.67614 10.2996L4.89231 15.2572L4.40013 18.367C4.39067 18.4271 4.39438 18.4886 4.411 18.5471C4.42763 18.6057 4.45678 18.6599 4.49644 18.7062C4.5361 18.7524 4.58534 18.7895 4.64076 18.815C4.69618 18.8404 4.75646 18.8535 4.81747 18.8535H7.53057C7.65423 18.8535 7.7738 18.8094 7.86777 18.7292C7.96173 18.649 8.0239 18.538 8.04309 18.4161L8.75818 13.8963C8.77745 13.7744 8.83971 13.6633 8.93374 13.5832C9.02777 13.503 9.1474 13.4589 9.2711 13.4589H10.8681C13.3831 13.4589 15.5165 11.6289 15.907 9.14881C16.1836 7.3886 15.2952 5.78664 13.7764 4.99255C13.7723 5.18002 13.7561 5.36708 13.7272 5.55251C13.3371 8.03174 11.2028 9.86215 8.68862 9.86215H6.18907C6.06533 9.86228 5.94569 9.90645 5.85167 9.9867C5.75765 10.067 5.69541 10.1776 5.67614 10.2996Z" fill="#0070E0"/>
<path id="Vector_5" d="M4.89172 15.2571H1.73524C1.67425 15.2571 1.61398 15.2439 1.55859 15.2184C1.5032 15.1929 1.45402 15.1557 1.41442 15.1094C1.37483 15.0631 1.34577 15.0088 1.32925 14.9503C1.31272 14.8917 1.30913 14.8302 1.31872 14.7701L3.4469 1.30765C3.46618 1.18576 3.52843 1.07473 3.62246 0.994543C3.71649 0.914356 3.83612 0.870278 3.95982 0.870239H9.3844C11.9523 0.870239 13.8197 2.73433 13.7762 4.99241C13.1372 4.65806 12.3863 4.46695 11.5638 4.46695H7.04145C6.91768 4.46689 6.79795 4.51092 6.70384 4.59112C6.60972 4.67131 6.54741 4.7824 6.52812 4.90436L5.67636 10.2994L4.89131 15.2571H4.89172Z" fill="#003087"/>
</g>
<defs>
<clipPath id="clip0_36_2269">
<rect width="76.4712" height="19.8825" fill="white" transform="translate(0.5 0.0587158)"/>
</clipPath>
</defs>
</svg>
