<svg width="61" height="20" viewBox="0 0 61 20" fill="none" xmlns="http://www.w3.org/2000/svg">
<g id="visa_inc_logo.svg" clip-path="url(#clip0_35_2240)">
<path id="path3789" d="M39.7442 0.138306C35.4186 0.138306 31.5349 2.38909 31.5349 6.51938C31.5349 11.2762 38.3954 11.601 38.3954 13.9678C38.3954 14.9656 37.2326 15.8706 35.2791 15.8706C32.4884 15.8706 30.3953 14.6176 30.3953 14.6176L29.5116 18.7943C29.5116 18.7943 31.907 19.8616 35.1163 19.8616C39.8605 19.8616 43.5814 17.518 43.5814 13.2949C43.5814 8.28288 36.6977 7.95803 36.6977 5.75365C36.6977 4.96472 37.6512 4.10618 39.6047 4.10618C41.814 4.10618 43.6279 5.01113 43.6279 5.01113L44.5116 0.973647C44.4884 0.973647 42.5116 0.138306 39.7442 0.138306ZM0.116279 0.439957L0 1.04326C0 1.04326 1.81395 1.36811 3.46512 2.04103C5.5814 2.80676 5.72093 3.24763 6.09302 4.61666L9.97674 19.5368H15.186L23.1628 0.439957H17.9767L12.8372 13.4342L10.7442 2.41229C10.5581 1.15928 9.5814 0.439957 8.37209 0.439957H0.116279ZM25.2558 0.439957L21.186 19.5368H26.1395L30.186 0.439957H25.2558ZM52.8372 0.439957C51.6512 0.439957 51.0233 1.06646 50.5581 2.18025L43.3023 19.5368H48.4884L49.4884 16.6363H55.814L56.4186 19.5368H61L57.0233 0.439957H52.8372ZM53.5116 5.61443L55.0465 12.7844H50.9302L53.5116 5.61443Z" fill="#1434CB"/>
</g>
<defs>
<clipPath id="clip0_35_2240">
<rect width="61" height="19.7233" fill="white" transform="translate(0 0.138306)"/>
</clipPath>
</defs>
</svg>
